<?xml version="1.0" encoding="UTF-8" standalone="no"?>
<svg
   xmlns:dc="http://purl.org/dc/elements/1.1/"
   xmlns:cc="http://creativecommons.org/ns#"
   xmlns:rdf="http://www.w3.org/1999/02/22-rdf-syntax-ns#"
   xmlns:svg="http://www.w3.org/2000/svg"
   xmlns="http://www.w3.org/2000/svg"
   viewBox="0 0 389 160"
   height="160"
   width="389"
   id="svg78"
   version="1.1">
  <metadata
     id="metadata84">
    <rdf:RDF>
      <cc:Work
         rdf:about="">
        <dc:format>image/svg+xml</dc:format>
        <dc:type
           rdf:resource="http://purl.org/dc/dcmitype/StillImage" />
        <dc:title></dc:title>
      </cc:Work>
    </rdf:RDF>
  </metadata>
  <defs
     id="defs82" />
  <g
     id="g86">
    <path
       id="path104"
       d="m 348.49142,144.13502 c -16.88489,-7.67065 -18.20692,-38.61545 -2.0758,-48.588554 4.31355,-2.666863 5.77396,-3.020112 12.48468,-3.019825 6.17201,2.64e-4 8.29471,0.429948 11.29929,2.287248 3.92037,2.423394 7.1211,6.892201 8.191,11.436111 0.59632,2.53258 0.41043,2.75 -2.35121,2.75 -2.48916,0 -3.34371,-0.67622 -5.02887,-3.97939 C 368.51694,100.1328 364.62447,98 358.19754,98 c -10.14067,0 -16.57404,8.34512 -16.4788,21.37568 0.0826,11.30644 4.78924,18.82763 12.92599,20.65583 8.37618,1.882 15.58176,-2.11074 17.63007,-9.76914 1.04915,-3.92265 1.40244,-4.26237 4.4326,-4.26237 3.78766,0 3.98353,0.79023 1.7588,7.0958 -1.91469,5.42681 -4.8222,8.64005 -9.9662,11.01416 -5.25968,2.42749 -14.69424,2.43931 -20.00858,0.0251 z M 226,93 l 12.25,0.02196 c 14.21537,0.02549 18.46352,1.380794 23.50715,7.49959 3.99025,4.84086 5.60686,11.69267 5.03142,21.32498 -0.53169,8.89981 -3.07463,14.75804 -8.02934,18.49734 -4.71175,3.55594 -9.8623,4.64425 -22.00923,4.65055 L 226,145 Z m 27.67907,43.39547 c 5.17037,-3.85731 6.73104,-7.86903 6.74577,-17.34017 0.0144,-9.27406 -1.13474,-12.59139 -5.90814,-17.0553 -2.41248,-2.256054 -3.64148,-2.533538 -12.59502,-2.843707 L 232,98.812585 v 40.380475 l 9.42907,-0.34653 c 7.67383,-0.28202 9.95418,-0.73829 12.25,-2.45106 z M 277,92.890418 286.31956,93.5 288.15042,99 c 7.57337,22.75087 13.23864,37.99946 13.86281,37.31301 0.40658,-0.44715 7.50177,-21.22551 10.23519,-29.06301 L 317.21828,93 H 326 v 52.13284 L 323.25,144.81642 320.5,144.5 c 0,0 -1.27688,-40.55 -1.61529,-40 -0.33841,0.55 -2.76269,7.525 -5.38728,15.5 -8.19848,24.91158 -8.23897,25 -11.44683,25 -1.54314,0 -3.23584,-0.5625 -3.76156,-1.25 -0.52571,-0.6875 -13.95883,-38.6775 -14.43084,-39.2 C 283.37764,104.01804 283,145 283,145 h -3 -3 z M 181,130 c 0,-0.55 0.68465,-1 1.52144,-1 0.83679,0 2.04132,-1.14102 2.67673,-2.5356 0.9629,-2.11333 0.67906,-4.0258 -1.70435,-11.48375 -2.67554,-8.37204 -2.87186,-10.95036 -0.73314,-9.62856 0.49155,0.3038 1.71774,3.27386 2.72486,6.60014 1.00711,3.32627 2.1737,6.04777 2.59242,6.04777 0.41872,0 1.52549,-2.3625 2.45949,-5.25 1.70315,-5.26534 3.91922,-8.62666 4.98487,-7.56101 0.64104,0.64104 -7.19906,22.61933 -8.76141,24.56101 C 185.56511,131.23613 181,131.43424 181,130 Z m -18.34201,-6.67534 C 162.2961,122.96276 162,117.11667 162,110.33333 162,100.03704 162.24775,98 163.5,98 c 1.10674,0 1.5,1.157015 1.5,4.41314 v 4.41313 l 2.82364,-1.0658 c 1.55301,-0.5862 4.05766,-0.75609 5.5659,-0.37755 5.51958,1.38533 7.15684,12.0707 2.55468,16.67286 -2.09704,2.09704 -8.36549,2.68964 -9.47423,0.89566 -0.44899,-0.72647 -1.03292,-0.72914 -1.90103,-0.009 -0.68914,0.57193 -1.54907,0.74378 -1.91097,0.38189 z m 10.67371,-2.57794 c 0.94268,-0.6893 1.98221,-2.90625 2.31005,-4.92653 0.49733,-3.06465 0.1697,-4.09965 -1.97737,-6.24672 C 170.5665,106.47559 169.60698,106.39302 167,109 c -3.78471,3.78471 -1.43915,13 3.30887,13 0.71988,0 2.08015,-0.56398 3.02283,-1.25328 z M 52.989528,79.241364 C 48.501314,77.00163 45.721419,71.729304 46.535128,67 48.004463,58.460183 56.372089,44.787257 62.414341,41.05294 66.975024,38.234283 68.656684,38.456684 72.6,42.4 c 2.886483,2.886483 3.4,4.098532 3.4,8.024983 0,8.600849 -6.849756,23.222855 -12.861495,27.455118 -4.16925,2.935151 -6.396433,3.233879 -10.148977,1.361263 z m 8.042556,-9.787996 c 5.877095,-8.542065 10.580306,-20.844466 8.966874,-23.455054 -1.317306,-2.131447 -4.57936,0.595858 -9.260594,7.742503 -6.43695,9.827022 -9.511412,19.152802 -7.106881,21.557333 1.162762,1.162762 4.26493,-1.287242 7.400601,-5.844782 z M 81.452402,79.594236 C 74.206866,76.438207 73.119558,67.704334 78.577327,56.5 82.034171,49.403392 91.63205,39 94.722338,39 c 2.692029,0 8.154712,4.546428 9.400872,7.824057 2.77135,7.289219 -6.110699,27.148982 -14.403453,32.205295 -3.759429,2.292224 -4.228231,2.324256 -8.267355,0.564884 z m 6.938157,-8.646543 C 94.543547,63.635283 101.3185,45 97.823975,45 94.040196,45 84.017476,59.590215 81.987029,68.054068 c -2.08652,8.697592 0.526327,9.878285 6.40353,2.893625 z M 199.63365,79.147678 C 198.73514,78.15484 198,76.532619 198,75.542741 198,72.194639 213.08532,39 214.60687,39 c 1.16491,0 6.34032,3.420365 6.72895,4.447082 0.2192,0.579105 -0.19284,4.652918 -0.91565,9.052918 -2.22477,13.54301 -1.82575,13.849997 3.89936,3 8.45508,-16.023731 10.04406,-17.883855 11.23239,-13.149138 0.41816,1.666057 -1.50439,6.83663 -6.5999,17.75 -3.95447,8.469526 -7.57527,16.411638 -8.04623,17.649138 -1.06532,2.799251 -1.91946,2.81369 -5.38085,0.09096 -2.71688,-2.137098 -2.74077,-2.258908 -2.35013,-11.984732 0.21706,-5.40413 0.0808,-9.49506 -0.30289,-9.090957 C 211.90647,57.782197 203,77.794826 203,78.947256 c 0,1.860681 -1.76855,1.965975 -3.36635,0.200422 z m 130.53509,0.02106 c -2.51272,-2.512715 -2.4908,-2.69686 1.56702,-13.168738 2.67754,-6.909825 10.34436,-22.359733 12.68252,-25.55735 1.37471,-1.88003 1.44043,-1.880489 3.4914,-0.02439 1.14968,1.040442 2.09032,2.35117 2.09032,2.91273 0,0.56156 -3.29157,7.579316 -7.3146,15.595013 -4.02303,8.015697 -7.97408,16.360446 -8.78011,18.543888 l -1.4655,3.969894 z m 10.38585,-0.108424 c -1.67198,-1.847513 -1.67244,-2.18944 -0.01,-7.195758 2.28372,-6.875641 14.62625,-31.092816 16.095,-31.57986 0.62699,-0.207914 2.39092,0.697979 3.91983,2.013096 l 2.77984,2.391121 -2.07965,9.905541 c -1.80925,8.617627 -1.86384,9.583895 -0.41983,7.43171 C 363.16417,58.562449 373.31272,45.105895 376.32043,41.5 l 2.50234,-3 2.57143,2.408167 c 1.41428,1.324492 2.82392,3.203693 3.13251,4.176002 0.33201,1.046043 -1.66691,6.187181 -4.8958,12.591833 -3.00129,5.953199 -6.62539,13.477312 -8.05355,16.720251 -2.5465,5.782345 -2.63511,5.861456 -4.58701,4.095013 C 364.35254,76.104084 364.42229,75.526956 368.5,66 c 1.925,-4.497476 3.4922,-8.474853 3.48267,-8.838615 -0.01,-0.363762 -3.17898,4.157604 -7.04323,10.04748 -6.69812,10.209272 -7.13795,10.657812 -9.42766,9.61455 -3.29741,-1.502403 -3.63406,-2.902497 -2.54574,-10.587467 0.51875,-3.663032 0.76497,-6.838271 0.54715,-7.056088 -0.21781,-0.217817 -1.04926,1.115107 -1.84767,2.962054 C 348.3083,69.90822 343.02341,81 342.68023,81 c -0.20364,0 -1.16018,-0.872857 -2.12564,-1.939682 z M 14.382139,77.652279 11.65275,75.304558 18.366721,61.402279 c 3.981707,-8.244718 6.595814,-14.901077 6.423625,-16.356617 -0.631015,-5.334061 12.742674,-7.650558 18.891448,-3.272245 10.864423,7.736152 3.853211,22.619969 -16.400608,34.816184 -6.682826,4.024188 -9.213688,4.232691 -12.899047,1.062678 z M 27.650916,68.586802 C 36.33642,62.033494 44.016471,51.091263 42.572199,47.327551 41.823839,45.377357 35.591164,45.67704 33.786317,47.75 31.225375,50.691375 19.767521,73 20.817754,73 c 0.541243,0 3.616166,-1.985939 6.833162,-4.413198 z M 101.2,78.8 c -2.28486,-2.28486 -1.17169,-6.418116 5.10149,-18.942113 5.20028,-10.382004 6.12883,-12.967484 5.31342,-14.794871 -1.13948,-2.553687 -0.16035,-3.472592 5.38509,-5.053852 9.32945,-2.660253 19,1.506987 19,8.187493 0,3.613943 -5.91737,10.181466 -12.88737,14.303343 -2.79012,1.65 -5.08187,3.497789 -5.09279,4.106198 -0.0109,0.608408 1.57906,3.200211 3.53327,5.759561 C 125.36344,77.355997 125.33008,79 121.41852,79 c -1.65777,0 -4.04317,-1.656239 -7.29357,-5.064089 l -4.83012,-5.064089 -2.63447,5.564089 C 103.91791,80.228054 103.20102,80.801016 101.2,78.8 Z m 26.05,-28.239677 c 4.38536,-4.793669 3.28029,-6.613147 -2.99507,-4.931326 C 122.01364,46.229671 115,56.185823 115,58.766753 c 0,1.647667 8.3566,-3.950524 12.25,-8.20643 z m 5.2848,26.336085 C 130.46257,75.076971 129,72.865261 129,71.551068 v -2.241747 l 5.64092,2.84534 c 10.40638,5.249084 12.84617,3.168313 5.4521,-4.649821 -5.53762,-5.855223 -6.37398,-9.127061 -3.6698,-14.356369 C 139.20055,47.777721 150.33698,39 154.37361,39 156.98998,39 162,44.018009 162,46.638554 c 0,2.82949 -2.14964,7.410457 -5.70641,12.160563 -1.98312,2.648478 -2.7487,3.068066 -3.88194,2.127555 -1.95779,-1.624819 -1.7654,-4.312949 0.64715,-9.041929 1.13234,-2.21957 1.8924,-4.789143 1.68902,-5.710162 C 154.19754,43.682596 143,54.94075 143,57.985995 c 0,1.282153 1.76077,4.200551 4,6.629831 5.06221,5.491847 5.32212,9.093895 0.92327,12.79528 -4.53966,3.819879 -10.68579,3.614309 -15.38847,-0.514698 z M 171.2,78.8 c -0.66,-0.66 -1.2,-1.910496 -1.2,-2.77888 0,-3.350204 23.35048,-36.982528 25.69424,-37.008094 0.65683,-0.0072 2.44363,1.061663 3.97068,2.375171 l 2.77644,2.388197 -3.18177,12.861803 C 197.50961,63.712189 195.80024,71.3 195.46099,73.5 194.46767,79.941597 194.29,80.225568 192.01484,79.00794 190.66161,78.283717 190,76.91377 190,74.835986 v -3.093647 l -5.01218,0.664889 c -6.84624,0.908186 -7.83476,1.3961 -9.55049,4.713953 C 173.8012,80.285119 173.00183,80.601828 171.2,78.8 Z m 17.85667,-12.786345 c 1.10032,-0.0097 2.05938,-2.108305 3.2715,-7.158816 0.94316,-3.929839 1.56196,-7.29804 1.37511,-7.484892 -0.45655,-0.45655 -9.47775,11.878747 -10.35037,14.152767 -0.58085,1.513678 -0.30691,1.696208 1.72842,1.15168 1.33027,-0.355896 3.11917,-0.653229 3.97534,-0.660739 z m 40.16584,12.429641 C 228.00013,77.587109 227,75.990405 227,74.895064 c 0,-1.09534 2.8125,-7.707323 6.25,-14.693296 3.85475,-7.833948 6.13885,-13.687171 5.95997,-15.273013 -0.21603,-1.915179 0.33534,-2.856186 2.16093,-3.687977 7.38502,-3.364845 14.76671,-2.242809 19.09637,2.902699 6.70621,7.969871 0.40044,19.851918 -16.42097,30.942291 -7.84171,5.170039 -11.1623,5.92214 -14.82379,3.357528 z m 16.05394,-12.451078 c 6.04925,-5.330284 10.69678,-12.05242 11.42184,-16.520426 L 257.26168,46 h -4.14554 c -3.60017,0 -4.40859,0.427551 -6.14514,3.25 C 244.39941,53.429648 235,71.638171 235,72.440195 c 0,1.19385 5.57062,-2.301445 10.27645,-6.447977 z m 35.96627,12.024833 c -1.03186,-1.65227 -0.82274,-3.087183 1.25402,-8.604609 1.37081,-3.641913 4.2753,-10.024162 6.45441,-14.182775 C 293.00273,47.497679 293.1958,46 290.14098,46 288.13287,46 286,44.14714 286,42.402655 286,41.05587 296.27324,39 303.00317,39 c 2.63836,0 5.05779,0.650183 6.17215,1.658664 1.51921,1.374864 2.27778,1.455919 4.43347,0.473722 1.43037,-0.651719 5.14104,-1.426544 8.24594,-1.721834 6.33695,-0.602673 10.59613,1.295528 13.76764,6.135858 1.6472,2.513951 1.64221,2.806821 -0.10303,6.047533 -1.88841,3.506573 -9.90694,10.283934 -14.76934,12.483239 -1.5125,0.684117 -2.75,1.744087 -2.75,2.355489 0,1.175709 5.91446,8.82382 7.28051,9.414575 0.44163,0.190985 0.27908,0.978485 -0.36122,1.75 -2.23023,2.687268 -5.51473,1.542669 -10.32252,-3.597246 -2.5723,-2.75 -4.84086,-5 -5.04123,-5 -0.20038,0 -1.3967,2.490789 -2.65849,5.535086 -2.51684,6.072342 -4.68442,6.854317 -6.29615,2.271398 -0.80397,-2.286102 0.0319,-4.648846 5.76095,-16.284636 3.68575,-7.485803 6.43558,-14.040592 6.11074,-14.566199 C 312.14775,45.430042 309.91821,45 307.51806,45 c -4.22568,0 -4.47871,0.182129 -7.98842,5.75 -1.99349,3.1625 -6.19067,11.030444 -9.32708,17.48432 -3.13641,6.453876 -6.15681,11.741376 -6.71201,11.75 -0.5552,0.0086 -1.56672,-0.876647 -2.24783,-1.967269 z m 44.36136,-25.586938 c 6.37871,-5.905622 5.42046,-9.29094 -1.8477,-6.527588 C 321.74905,46.665711 315,57.104846 315,59.446514 c 0,1.190528 6.09728,-2.843862 10.60408,-7.016401 z"
       style="fill:#000000" />
  </g>
</svg>
